<?xml version="1.0" encoding="UTF-8" standalone="no"?>
<!-- Created with Inkscape (http://www.inkscape.org/) -->

<svg
   id="svg5"
   version="1.1"
   viewBox="0 0 305 300"
   height="300"
   width="305"
   inkscape:version="1.1.1 (3bf5ae0d25, 2021-09-20)"
   sodipodi:docname="eden and partners.svg"
   inkscape:export-filename="C:\Users\Eden\Desktop\bitmap.png"
   inkscape:export-xdpi="377.70493"
   inkscape:export-ydpi="377.70493"
   xmlns:inkscape="http://www.inkscape.org/namespaces/inkscape"
   xmlns:sodipodi="http://sodipodi.sourceforge.net/DTD/sodipodi-0.dtd"
   xmlns="http://www.w3.org/2000/svg"
   xmlns:svg="http://www.w3.org/2000/svg">
  <sodipodi:namedview
     id="namedview7"
     pagecolor="#a0a0a0"
     bordercolor="#666666"
     borderopacity="1.0"
     inkscape:pageshadow="2"
     inkscape:pageopacity="0"
     inkscape:pagecheckerboard="0"
     inkscape:document-units="px"
     showgrid="true"
     inkscape:zoom="1.0958064"
     inkscape:cx="161.98116"
     inkscape:cy="273.3147"
     inkscape:window-width="1920"
     inkscape:window-height="1009"
     inkscape:window-x="-8"
     inkscape:window-y="-8"
     inkscape:window-maximized="1"
     inkscape:current-layer="layer1"
     inkscape:object-paths="false"
     fit-margin-top="0"
     fit-margin-left="0"
     fit-margin-right="0"
     fit-margin-bottom="0">
    <inkscape:grid
       type="xygrid"
       id="grid2966"
       originx="-105"
       originy="-80"
       enabled="true" />
  </sodipodi:namedview>
  <defs
     id="defs2" />
  <g
     inkscape:label="Layer 1"
     inkscape:groupmode="layer"
     id="layer1"
     transform="translate(-105,-80)">
    <path
       style="fill:#264918;fill-opacity:1;stroke:none;stroke-width:1px;stroke-linecap:butt;stroke-linejoin:miter;stroke-opacity:1"
       d="m 410,105 v 250 c 0,20 -5,25 -25,25 H 130 Z"
       id="path6062"
       sodipodi:nodetypes="ccccc" />
    <path
       style="fill:#ffcc8e;fill-opacity:1;stroke:none;stroke-width:1px;stroke-linecap:butt;stroke-linejoin:miter;stroke-opacity:1"
       d="M 105,355 V 105 c 0,-20 5,-25 25,-25 h 255 z"
       id="path6062-5"
       sodipodi:nodetypes="ccccc" />
    <path
       style="fill:#ff8829;fill-opacity:1;stroke:none;stroke-width:1px;stroke-linecap:butt;stroke-linejoin:miter;stroke-opacity:1"
       d="M 105,355 C 105,80 253.9276,80 385,80 c 20,0 25,5 25,25 0,261.1292 -160,275 -280,275 -20,0 -25,-5 -25,-25 z"
       id="path2968"
       sodipodi:nodetypes="ccccc" />
    <path
       style="fill:#264918;fill-opacity:1;stroke:none;stroke-width:1px;stroke-linecap:butt;stroke-linejoin:miter;stroke-opacity:1"
       d="M 245,370 C 308.10181,350.58406 357.06691,298.18248 359.87295,189.92214 360.31572,179.42006 361,181.10522 365.04152,186.87351 410,251.15634 410,335 410,335"
       id="path7136"
       sodipodi:nodetypes="cccc" />
    <path
       style="fill:#264918;fill-opacity:1;stroke:none;stroke-width:1px;stroke-linecap:butt;stroke-linejoin:miter;stroke-opacity:1"
       d="m 225,375 c 71.02266,-9.46969 90.03383,-86.19562 96.09643,-149.50435 0.37125,-12.1054 1.65366,-9.19653 5.71748,-0.59447 C 352.32825,278.97214 355,312.53315 355,355"
       id="path7531"
       sodipodi:nodetypes="cccc" />
    <path
       style="fill:#264918;fill-opacity:1;stroke:none;stroke-width:1px;stroke-linecap:butt;stroke-linejoin:miter;stroke-opacity:1"
       d="m 215,375 c 51.63059,-9.38738 63.60588,-67.24236 64.87936,-123.93035 -0.70872,-13.10381 1.38418,-9.39645 6.04341,-0.54665 C 309.30934,295.06551 305,328.22341 305,370"
       id="path7921"
       sodipodi:nodetypes="cccc" />
    <path
       style="fill:#ffb052;fill-opacity:1;stroke:none;stroke-width:1px;stroke-linecap:butt;stroke-linejoin:miter;stroke-opacity:1"
       d="M 385,80 C 300,80 275,355 105,355 105,95 220,80 385,80 Z"
       id="path8330"
       sodipodi:nodetypes="ccc" />
    <path
       style="fill:none;stroke:none;stroke-width:1px;stroke-linecap:butt;stroke-linejoin:miter;stroke-opacity:1"
       d="m 315,95 c -45,0 -100,20 -130,50 -30,30 -20,30 10,5 30,-25 75,-45 120,-45 45,0 30,-10 0,-10 z"
       id="path10731" />
    <text
       xml:space="preserve"
       style="font-size:56px;line-height:1.25;font-family:Futura-Bold;-inkscape-font-specification:Futura-Bold"
       x="123.86979"
       y="150"
       id="text54058"><tspan
         sodipodi:role="line"
         id="tspan54056"
         x="123.86979"
         y="150">EDEN</tspan></text>
    <text
       xml:space="preserve"
       style="font-size:20px;line-height:1.25;font-family:Futura-Bold;-inkscape-font-specification:Futura-Bold"
       x="268.27957"
       y="150"
       id="text57612"><tspan
         sodipodi:role="line"
         id="tspan57610"
         x="268.27957"
         y="150"> <tspan
   style="font-size:22.6667px"
   id="tspan71280">+partners</tspan></tspan></text>
  </g>
</svg>
