<?xml version="1.0" encoding="UTF-8" standalone="no"?>
<!-- Created with Inkscape (http://www.inkscape.org/) -->

<svg
   width="865.48541"
   height="678.07715"
   viewBox="0 0 865.48539 678.07714"
   version="1.1"
   id="svg5"
   inkscape:export-filename="C:\Users\Eden\Desktop\bitmap.png"
   inkscape:export-xdpi="72"
   inkscape:export-ydpi="72"
   inkscape:version="1.1.1 (3bf5ae0d25, 2021-09-20)"
   sodipodi:docname="HBFA70.svg"
   xmlns:inkscape="http://www.inkscape.org/namespaces/inkscape"
   xmlns:sodipodi="http://sodipodi.sourceforge.net/DTD/sodipodi-0.dtd"
   xmlns="http://www.w3.org/2000/svg"
   xmlns:svg="http://www.w3.org/2000/svg">
  <sodipodi:namedview
     id="namedview7"
     pagecolor="#ffffff"
     bordercolor="#666666"
     borderopacity="1.0"
     inkscape:pageshadow="2"
     inkscape:pageopacity="0.0"
     inkscape:pagecheckerboard="0"
     inkscape:document-units="px"
     showgrid="false"
     inkscape:object-paths="true"
     inkscape:snap-intersection-paths="true"
     inkscape:snap-smooth-nodes="true"
     inkscape:snap-midpoints="true"
     inkscape:snap-bbox="true"
     inkscape:bbox-paths="true"
     inkscape:bbox-nodes="true"
     inkscape:snap-bbox-edge-midpoints="true"
     inkscape:snap-bbox-midpoints="true"
     inkscape:snap-object-midpoints="true"
     inkscape:snap-center="true"
     inkscape:snap-text-baseline="true"
     fit-margin-top="0"
     fit-margin-left="0"
     fit-margin-right="0"
     fit-margin-bottom="0"
     inkscape:zoom="1.1739077"
     inkscape:cx="464.68729"
     inkscape:cy="428.90935"
     inkscape:window-width="1920"
     inkscape:window-height="1009"
     inkscape:window-x="-8"
     inkscape:window-y="-8"
     inkscape:window-maximized="1"
     inkscape:current-layer="layer1" />
  <defs
     id="defs2" />
  <g
     inkscape:label="Layer 1"
     inkscape:groupmode="layer"
     id="layer1"
     transform="translate(1.6433488,-3.4820204)">
    <path
       style="fill:#000000;fill-opacity:1;stroke:none;stroke-width:1px;stroke-linecap:butt;stroke-linejoin:miter;stroke-opacity:1"
       d="M 569.09997,3.4820204 V 342.52059 H -1.6433476 Z"
       id="path11019" />
    <path
       style="fill:#000000;fill-opacity:1;stroke:none;stroke-width:1px;stroke-linecap:butt;stroke-linejoin:miter;stroke-opacity:1"
       d="M 569.09997,681.55916 V 342.52059 H -1.6433488 Z"
       id="path11019-5" />
    <path
       style="fill:#000000;fill-opacity:1;stroke:none;stroke-width:0.718622px;stroke-linecap:butt;stroke-linejoin:miter;stroke-opacity:1"
       d="M 569.09997,3.482023 V 342.52059 h 294.74208 z"
       id="path11019-4" />
    <path
       style="fill:#000000;fill-opacity:1;stroke:none;stroke-width:0.718622px;stroke-linecap:butt;stroke-linejoin:miter;stroke-opacity:1"
       d="M 569.09997,681.55916 V 342.52059 h 294.74208 z"
       id="path11019-5-4" />
    <path
       id="path12090"
       style="fill:#ffffff;fill-opacity:1;stroke:none;stroke-width:1px;stroke-linecap:butt;stroke-linejoin:miter;stroke-opacity:1"
       d="M 570.74414 57.074219 L 524.74219 87.740234 L 524.74219 184.85352 L 430.61328 184.85352 L 514.0957 133.84766 L 445.41406 133.84766 L 90.851562 339.03906 L 183.57422 339.03906 L 388.44531 219.7793 L 524.74219 219.7793 L 525.5957 339.03906 L 570.74414 339.03906 L 718.11523 339.03906 C 776.93282 339.03906 774.52297 294.15467 754.04297 270.06055 C 733.56297 245.96643 722.11858 235.1237 707.66211 218.25781 C 693.20564 201.39193 667.90671 180.91211 637.78906 180.91211 L 570.74414 180.91211 L 570.74414 57.074219 z M 570.74414 218.25781 L 635.98047 218.25781 C 659.47224 218.25781 666.09906 223.6795 676.94141 235.72656 C 687.78376 247.77362 709.46898 270.06116 719.70898 281.50586 C 729.94898 292.95057 720.31161 303.18945 701.63867 303.18945 L 570.74414 303.18945 L 570.74414 218.25781 z "
       transform="translate(-1.6433488,3.4820204)" />
    <path
       id="path13106"
       style="fill:#ffffff;fill-opacity:1;stroke:none;stroke-width:1px;stroke-linecap:butt;stroke-linejoin:miter;stroke-opacity:1"
       d="m 106.51367,353.49414 80.22461,41.2207 9.65234,4.95899 329.20508,1.06055 v 44.16601 H 263.81055 l 72.33007,44.57227 H 525.5957 v 107.19336 l 45.14844,24.73242 V 487.44727 l 44.82031,-44.36133 70.0293,59.41015 26.77148,-29.5039 -109.51869,-92.41046 C 570.74332,353.41437 561.14739,353.49414 525.5957,353.49414 Z m 464.23047,47.38477 19.45898,17.96289 -19.45898,18.37109 z"
       transform="translate(-1.6433488,3.4820204)"
       sodipodi:nodetypes="ccccccccccccccccccccc" />
  </g>
</svg>
