<?xml version="1.0" encoding="UTF-8" standalone="no"?>
<!-- Created with Inkscape (http://www.inkscape.org/) -->

<svg
   width="169.53384mm"
   height="107.69729mm"
   viewBox="0 0 169.53384 107.69729"
   version="1.1"
   id="svg5"
   sodipodi:docname="HCLC.svg"
   inkscape:export-filename="C:\Users\Eden\Desktop\New document 1.2022_04_28_14_44_37.0.png"
   inkscape:export-xdpi="491.57001"
   inkscape:export-ydpi="491.57001"
   inkscape:version="1.1.1 (3bf5ae0d25, 2021-09-20)"
   xmlns:inkscape="http://www.inkscape.org/namespaces/inkscape"
   xmlns:sodipodi="http://sodipodi.sourceforge.net/DTD/sodipodi-0.dtd"
   xmlns:xlink="http://www.w3.org/1999/xlink"
   xmlns="http://www.w3.org/2000/svg"
   xmlns:svg="http://www.w3.org/2000/svg">
  <sodipodi:namedview
     id="namedview7"
     pagecolor="#ffce00"
     bordercolor="#666666"
     borderopacity="1.0"
     inkscape:pageshadow="2"
     inkscape:pageopacity="0"
     inkscape:pagecheckerboard="0"
     inkscape:document-units="mm"
     showgrid="false"
     inkscape:snap-object-midpoints="true"
     inkscape:snap-center="true"
     inkscape:object-paths="true"
     inkscape:object-nodes="true"
     inkscape:snap-intersection-paths="true"
     inkscape:snap-bbox="false"
     inkscape:bbox-paths="false"
     inkscape:snap-smooth-nodes="true"
     inkscape:snap-midpoints="true"
     fit-margin-top="0"
     fit-margin-left="0"
     fit-margin-right="0"
     fit-margin-bottom="0"
     inkscape:zoom="1.0708779"
     inkscape:cx="270.33894"
     inkscape:cy="168.5533"
     inkscape:window-width="1920"
     inkscape:window-height="1009"
     inkscape:window-x="-8"
     inkscape:window-y="-8"
     inkscape:window-maximized="1"
     inkscape:current-layer="layer1" />
  <defs
     id="defs2" />
  <g
     inkscape:label="Layer 1"
     inkscape:groupmode="layer"
     id="layer1"
     transform="translate(-20.41896,-103.2927)">
    <path
       style="fill:#ffef7a;fill-opacity:1;stroke:none;stroke-width:0.264583px;stroke-linecap:butt;stroke-linejoin:miter;stroke-opacity:1"
       d="m 44.757578,134.39287 c 41.230581,-12.90498 94.165092,-9.92456 122.992242,2.47435 l -0.50989,20.73893 -123.743682,-0.82767 z"
       id="path2932-1-9" />
    <path
       style="fill:#ffe100;fill-opacity:1;stroke:none;stroke-width:0.264583px;stroke-linecap:butt;stroke-linejoin:miter;stroke-opacity:1"
       d="m 44.873804,140.42577 c 41.230583,-12.90498 94.165086,-9.92456 122.992246,2.47435 l -0.5099,20.73893 -123.743676,-0.82767 z"
       id="path2932-1" />
    <path
       style="fill:#ffbd00;fill-opacity:1;stroke:none;stroke-width:0.264583px;stroke-linecap:butt;stroke-linejoin:miter;stroke-opacity:1"
       d="m 44.366263,143.52279 c 41.230587,-12.90498 94.165087,-9.92456 122.992247,2.47435 l -0.5099,20.73893 -123.743676,-0.82767 z"
       id="path2932-7" />
    <path
       style="fill:#ff8100;fill-opacity:1;stroke:none;stroke-width:0.264583px;stroke-linecap:butt;stroke-linejoin:miter;stroke-opacity:1"
       d="m 44.375294,147.60321 c 41.230587,-12.90498 94.165086,-9.92456 122.992246,2.47435 l -0.5099,20.73893 -123.743676,-0.82767 z"
       id="path2932" />
    <path
       style="fill:#87a04c;fill-opacity:1;stroke:#000000;stroke-width:1;stroke-linecap:butt;stroke-linejoin:miter;stroke-miterlimit:4;stroke-dasharray:none;stroke-opacity:1"
       d="m 159.64607,149.05053 c -6.89878,-0.98437 -13.51342,2.37383 -20.22982,2.37383 -6.7164,0 -14.55221,-5.39347 -24.32152,-6.41111 -11.4993,-0.10176 -19.945686,3.76526 -24.423288,3.66349 -5.902293,0 -12.72046,-3.15467 -16.791005,-3.15467 -4.782894,0.10176 -22.268037,2.08114 -22.268037,2.08114 v 0 h -8.498436 v 30.04115 l 43.2375,17.04793 h 49.043676 l 34.83707,-26.43665 0.98829,-17.6656 z"
       id="path72709" />
    <path
       d="m 84.545878,184.36896 c 10.374969,-2.50985 18.792652,-12.76411 2.10824,-15.82146 -12.490107,-2.43136 -20.615294,-10.17662 -13.277647,-14.71897 7.337647,-4.54235 17.294971,-5.15179 17.294971,-5.15179 l -3.154573,-0.25473 -4.082934,-0.84311 -2.910695,-0.76584 -2.583826,-0.66979 -4.058977,-0.6212 -2.796322,0.15141 -3.25198,0.26488 -3.57861,0.33322 -3.695849,0.36968 -3.322003,0.34745 -3.368942,0.36411 -2.254328,0.25039 -1.809648,3.34136 -0.964216,3.11217 -0.308267,2.75541 0.300666,3.37618 0.776585,2.66315 1.545256,3.11075 2.030858,2.8018 1.167968,1.29995 2.14413,2.03263 2.47362,1.95639 2.795456,1.86561 3.824935,2.12829 5.147636,2.3012 3.819348,1.38621 4.10148,1.23972 z"
       style="fill:#98b556;fill-opacity:1;stroke:none;stroke-width:0.0700042px;stroke-linecap:butt;stroke-linejoin:miter;stroke-opacity:1"
       id="path11194"
       sodipodi:nodetypes="ccsccccccccccccccccccccccccccccc" />
    <ellipse
       style="fill:none;fill-rule:evenodd;stroke:#ff0000;stroke-width:0.0954751;stroke-linejoin:round;stroke-miterlimit:4;stroke-dasharray:none;stroke-opacity:1;paint-order:markers stroke fill"
       id="path892-3-2-9"
       cx="105.18588"
       cy="157.14134"
       rx="62.196198"
       ry="34.307346" />
    <path
       style="fill:#6c803d;fill-opacity:1;stroke:none;stroke-width:0.264583px;stroke-linecap:butt;stroke-linejoin:miter;stroke-opacity:1"
       d="m 159.64607,149.05053 c 0,0 -2.63872,-0.1807 -2.63872,-0.1807 l -2.33443,0.12076 -2.52492,0.34988 -2.87803,0.56913 -3.16553,0.68234 c 0,0 -43.05071,8.9499 -57.714637,8.97589 l 73.348467,-0.61768 -0.089,-4.25554 z"
       id="path16876" />
    <path
       style="fill:none;fill-opacity:1;stroke:#000000;stroke-width:1;stroke-linecap:butt;stroke-linejoin:miter;stroke-miterlimit:4;stroke-dasharray:none;stroke-opacity:1"
       d="m 159.63352,149.05053 c -6.89878,-0.98437 -13.51342,2.37383 -20.22982,2.37383 -6.7164,0 -14.55221,-5.39347 -24.32152,-6.41111 -11.4993,-0.10176 -19.945682,3.76526 -24.423284,3.66349 -5.902293,0 -12.72046,-3.15467 -16.791005,-3.15467 -4.782894,0.10176 -22.268037,2.08114 -22.268037,2.08114 v 0 h -8.498436 v 30.04115 l 43.2375,17.04793 h 49.043672 l 34.83707,-26.43665 0.98829,-17.6656 z"
       id="path72709-7" />
    <ellipse
       style="fill:none;fill-rule:evenodd;stroke:#ff0000;stroke-width:0.1;stroke-linejoin:round;stroke-miterlimit:4;stroke-dasharray:none;stroke-opacity:1;paint-order:markers stroke fill"
       id="path892-3-2"
       cx="105.18588"
       cy="-157.14134"
       rx="73.600342"
       ry="43.466892"
       transform="scale(1,-1)" />
    <path
       style="fill:#8d6943;fill-opacity:1;stroke:none;stroke-width:0.264583px;stroke-linecap:butt;stroke-linejoin:miter;stroke-opacity:1"
       d="m 161.73827,158.95015 c -24.36656,-0.0832 -73.348466,0.61768 -73.348466,0.61768 -10.12993,0 -18.420099,5.92231 -1.735686,8.97967 16.684412,3.05735 8.266731,13.31161 -2.10824,15.82146 l 8.871434,1.36854 6.064892,0.48507 8.835476,0.10236 11.40829,-0.92744 9.23878,-1.71947 7.50391,-2.16407 -5.53651,0.80669 -5.81508,-0.0411 -6.2468,-0.82533 -6.11422,-1.95541 -4.14168,-2.19396 -5.36057,-3.79573 -4.061533,-2.87323 -3.864209,-2.03592 -3.129107,-1.041 -5.711383,-1.21422 -2.910331,-0.82421 -1.81721,-0.75851 -0.861557,-0.66392 -0.146016,-0.4525 0.219477,-0.39814 0.463065,-0.32129 2.356231,-0.71304 3.963087,-0.49227 3.385793,-0.16906 4.35282,-0.0322 65.659393,0.0784 z"
       id="path10177"
       sodipodi:nodetypes="ccsccccccccccccccccccccccccccccc" />
    <path
       style="fill:#c5e6ff;fill-opacity:1;stroke:#000000;stroke-width:1;stroke-linecap:butt;stroke-linejoin:miter;stroke-miterlimit:4;stroke-dasharray:none;stroke-opacity:1"
       d="m 161.18243,161.59811 -67.329233,-0.0804 c -13.772452,-0.0164 -19.502795,2.68336 -3.10752,5.72404 14.919353,2.76695 15.403523,17.42536 44.033053,14.82374 l 3.17648,-1.07801 4.66237,-1.90469 3.85134,-1.92293 2.42422,-1.41858 3.13888,-2.15483 1.94594,-1.57831 2.90819,-2.8915 1.59198,-2.02677 1.0768,-1.69593 1.15793,-2.41025 z"
       id="path56520"
       sodipodi:nodetypes="cssc" />
    <path
       id="path892-3-3"
       style="fill:#ffffff;fill-opacity:1;fill-rule:evenodd;stroke:#000000;stroke-width:1.289;stroke-linejoin:round;stroke-miterlimit:4;stroke-dasharray:none;paint-order:fill markers stroke"
       d="m 161.84501,-157.14134 c -1e-5,16.14189 -25.36716,29.22747 -56.65913,29.22747 -31.291968,0 -56.659122,-13.08558 -56.659128,-29.22747 -4e-6,-16.14189 25.367152,-29.22748 56.659128,-29.22748 31.29198,0 56.65913,13.08559 56.65913,29.22748 z m 22.89941,0 c -1e-5,26.94336 -35.61958,48.78526 -79.55854,48.78526 -43.938963,0 -79.558532,-21.8419 -79.558538,-48.78526 -3e-6,-26.94336 35.619569,-48.78527 79.558538,-48.78527 43.93897,0 79.55854,21.84191 79.55854,48.78527 z"
       transform="scale(1,-1)"
       sodipodi:nodetypes="ssssssssss" />
    <text
       xml:space="preserve"
       style="font-style:normal;font-variant:normal;font-weight:normal;font-stretch:normal;font-size:16.9333px;line-height:1.25;font-family:Elephant;-inkscape-font-specification:Elephant;stroke-width:0.264583"
       id="text13601"><textPath
         xlink:href="#path892-3-2-9"
         id="textPath38426"><tspan
           id="tspan13599"
           style="font-style:normal;font-variant:normal;font-weight:normal;font-stretch:normal;font-family:Elephant;-inkscape-font-specification:Elephant;stroke-width:0.264583">                                          Happy Camp</tspan></textPath></text>
    <path
       id="path892-3"
       style="fill:#898989;fill-opacity:1;fill-rule:evenodd;stroke:#000000;stroke-width:1.974;stroke-linejoin:round;stroke-miterlimit:4;stroke-dasharray:none;paint-order:fill markers stroke"
       transform="scale(1,-1)"
       d="m 184.74442,-157.14134 a 79.55854,48.785267 0 0 1 -79.55854,48.78526 79.55854,48.785267 0 0 1 -79.558538,-48.78526 79.55854,48.785267 0 0 1 79.558538,-48.78527 79.55854,48.785267 0 0 1 79.55854,48.78527 z m 4.22139,0 a 83.779922,52.861645 0 0 0 -83.77993,-52.86165 83.779922,52.861645 0 0 0 -83.77992,52.86165 83.779922,52.861645 0 0 0 83.77992,52.86164 83.779922,52.861645 0 0 0 83.77993,-52.86164 z" />
    <text
       xml:space="preserve"
       style="font-size:16.9333px;line-height:1.25;font-family:RFP;-inkscape-font-specification:RFP;stroke-width:0.264583"
       x="46.655071"
       y="139.96521"
       id="text7017"><tspan
         sodipodi:role="line"
         id="tspan7015"
         style="stroke-width:0.264583"
         x="46.655071"
         y="139.96521" /></text>
    <text
       xml:space="preserve"
       style="font-size:16.9333px;line-height:1.25;font-family:Futura-Black;-inkscape-font-specification:Futura-Black;stroke-width:0.264583"
       x="64.68602"
       y="169.04012"
       id="text26897"><tspan
         sodipodi:role="line"
         id="tspan26895"
         style="stroke-width:0.264583"
         x="64.68602"
         y="169.04012" /></text>
    <text
       xml:space="preserve"
       style="font-size:16.9333px;line-height:1.25;font-family:Elephant;-inkscape-font-specification:Elephant;stroke-width:0.264583"
       id="text30003"><textPath
         xlink:href="#path892-3-2"
         id="textPath46919"><tspan
           id="tspan30001"
           style="stroke-width:0.264583">                                                      Logging  Co</tspan></textPath></text>
  </g>
</svg>
