<?xml version="1.0" encoding="UTF-8" standalone="no"?>
<!-- Created with Inkscape (http://www.inkscape.org/) -->

<svg
   width="211.64674mm"
   height="211.64674mm"
   viewBox="0 0 211.64674 211.64674"
   version="1.1"
   id="svg5"
   inkscape:version="1.1.1 (3bf5ae0d25, 2021-09-20)"
   sodipodi:docname="TOW.svg"
   inkscape:export-filename="C:\Users\Eden\Desktop\bitmap.png"
   inkscape:export-xdpi="491.5668"
   inkscape:export-ydpi="491.5668"
   xmlns:inkscape="http://www.inkscape.org/namespaces/inkscape"
   xmlns:sodipodi="http://sodipodi.sourceforge.net/DTD/sodipodi-0.dtd"
   xmlns="http://www.w3.org/2000/svg"
   xmlns:svg="http://www.w3.org/2000/svg">
  <sodipodi:namedview
     id="namedview7"
     pagecolor="#ffffff"
     bordercolor="#666666"
     borderopacity="1.0"
     inkscape:pageshadow="2"
     inkscape:pageopacity="0.0"
     inkscape:pagecheckerboard="0"
     inkscape:document-units="mm"
     showgrid="false"
     fit-margin-top="0"
     fit-margin-left="0"
     fit-margin-right="0"
     fit-margin-bottom="0"
     inkscape:object-paths="true"
     inkscape:snap-intersection-paths="true"
     inkscape:snap-smooth-nodes="true"
     inkscape:snap-midpoints="true"
     inkscape:snap-bbox="true"
     inkscape:bbox-paths="true"
     inkscape:bbox-nodes="true"
     inkscape:snap-bbox-edge-midpoints="true"
     inkscape:snap-bbox-midpoints="true"
     inkscape:snap-object-midpoints="true"
     inkscape:snap-center="true"
     inkscape:snap-text-baseline="true"
     inkscape:snap-others="true"
     inkscape:snap-nodes="true"
     inkscape:zoom="0.58695387"
     inkscape:cx="445.52053"
     inkscape:cy="539.22466"
     inkscape:window-width="1920"
     inkscape:window-height="1009"
     inkscape:window-x="-8"
     inkscape:window-y="-8"
     inkscape:window-maximized="1"
     inkscape:current-layer="layer1" />
  <defs
     id="defs2" />
  <g
     inkscape:label="Layer 1"
     inkscape:groupmode="layer"
     id="layer1"
     transform="translate(1.9124756,-28.687065)">
    <ellipse
       style="fill:#000000;fill-opacity:1;fill-rule:evenodd;stroke:none;stroke-width:11.9062;stroke-linejoin:round;stroke-miterlimit:4;stroke-dasharray:none;stroke-opacity:1;paint-order:markers stroke fill"
       id="path21033"
       cx="103.91104"
       cy="134.51057"
       rx="86.380257"
       ry="86.379738" />
    <g
       id="g19247"
       transform="matrix(1.424356,0,0,1.424356,-17.25377,-43.442575)"
       style="stroke:#f1962b;stroke-opacity:1">
      <g
         id="g19134"
         transform="matrix(0.481199,0,0,0.481199,30.814939,82.927913)"
         style="stroke-width:10.9968;stroke-miterlimit:4;stroke-dasharray:none;stroke:#f1962b;stroke-opacity:1">
        <path
           style="fill:none;stroke:#f1962b;stroke-width:10.9968;stroke-linecap:butt;stroke-linejoin:miter;stroke-miterlimit:4;stroke-dasharray:none;stroke-opacity:1"
           d="m 107.9636,145.77552 c 0,-4.56409 -2.02848,-9.07182 -9.015474,-9.07182 -6.986992,0 -12.170888,5.80371 -8.057581,11.1003 4.113311,5.29659 25.130635,28.39874 25.130635,28.39874 v 3.60619"
           id="path17743"
           sodipodi:nodetypes="csscc" />
        <path
           style="fill:none;stroke:#f1962b;stroke-width:10.9968;stroke-linecap:butt;stroke-linejoin:miter;stroke-miterlimit:4;stroke-dasharray:none;stroke-opacity:1"
           d="m 96.412524,154.17118 c -10.124962,6.08604 -10.908097,11.41072 -8.902779,15.49534 2.685975,5.47105 12.413621,5.59706 22.022575,-0.59482 5.45294,-3.5138 6.08544,-8.11392 6.0291,-10.81856"
           id="path17745"
           sodipodi:nodetypes="cssc" />
      </g>
      <g
         id="g19139"
         transform="matrix(0.89398892,0,0,0.89398892,1.8475441,5.7052733)"
         style="stroke:#f1962b;stroke-opacity:1">
        <path
           style="fill:none;stroke:#f1962b;stroke-width:13.3181;stroke-linecap:butt;stroke-linejoin:miter;stroke-miterlimit:4;stroke-dasharray:none;stroke-opacity:1"
           d="m 92.074829,63.93683 v 8.82925 l -59.859084,46.89596 v 11.05678"
           id="path1931"
           sodipodi:nodetypes="ccc" />
        <path
           style="fill:none;stroke:#f1962b;stroke-width:12.4824;stroke-linecap:butt;stroke-linejoin:miter;stroke-miterlimit:4;stroke-dasharray:none;stroke-opacity:1"
           d="m 66.339234,95.234241 0,107.984799"
           id="path1933"
           sodipodi:nodetypes="cc" />
        <circle
           style="fill:none;fill-opacity:1;fill-rule:evenodd;stroke:#f1962b;stroke-width:11.5;stroke-linejoin:round;stroke-miterlimit:4;stroke-dasharray:none;stroke-opacity:1;paint-order:markers stroke fill"
           id="path2371"
           cx="94.982933"
           cy="107.45477"
           r="16.731329" />
      </g>
      <path
         style="fill:none;stroke:#f1962b;stroke-width:11.9062;stroke-linecap:butt;stroke-linejoin:miter;stroke-miterlimit:4;stroke-dasharray:none;stroke-opacity:1"
         d="m 79.589147,127.52094 h 9.35627 l 9.843964,35.48778 h 0.852 l 12.068409,-35.48778 h 1.11886 l 9.70621,35.48778 h 0.66701 l 12.73542,-35.48778 15.54227,0"
         id="path14296"
         sodipodi:nodetypes="cccccccccc" />
    </g>
    <path
       id="path870"
       style="fill:#741519;fill-rule:evenodd;stroke-width:2;stroke-linejoin:round;paint-order:markers stroke fill;stroke:none;fill-opacity:1"
       d="M 399.96289 0 A 399.96235 399.96235 0 0 0 0 399.96289 A 399.96235 399.96235 0 0 0 399.96289 799.92383 A 399.96235 399.96235 0 0 0 799.92383 399.96289 A 399.96235 399.96235 0 0 0 399.96289 0 z M 399.96289 73.486328 A 326.47532 326.47532 0 0 1 726.4375 399.96289 A 326.47532 326.47532 0 0 1 399.96289 726.4375 A 326.47532 326.47532 0 0 1 73.486328 399.96289 A 326.47532 326.47532 0 0 1 399.96289 73.486328 z "
       transform="matrix(0.26458333,0,0,0.26458333,-1.9124756,28.687065)" />
  </g>
</svg>
